<svg width="465" height="339" viewBox="0 0 465 339" fill="none" xmlns="http://www.w3.org/2000/svg">
<rect x="0.542847" y="1.33998" width="463.285" height="336.932" rx="10" transform="rotate(-0.100847 0.542847 1.33998)" fill="white"/>
<path d="M136.867 162.975L138.871 170.097L145.809 170.085L134.78 135.979L128.803 135.989L117.684 170.134L124.621 170.122L126.624 162.993L136.867 162.975ZM128.232 157.389L131.796 144.82L135.31 157.376L128.232 157.389ZM195.457 161.091C195.458 161.7 195.334 162.263 195.085 162.779C194.836 163.279 194.477 163.71 194.009 164.07C193.541 164.43 192.964 164.712 192.276 164.917C191.605 165.121 190.832 165.224 189.957 165.226C188.972 165.227 188.066 165.12 187.237 164.902C186.424 164.685 185.728 164.342 185.15 163.875C184.555 163.407 184.093 162.806 183.764 162.072C183.434 161.339 183.253 160.456 183.22 159.425L176.751 159.436C176.754 161.202 177.093 162.74 177.767 164.052C178.457 165.363 179.389 166.502 180.562 167.469C181.798 168.451 183.245 169.198 184.902 169.711C186.575 170.208 188.263 170.455 189.966 170.452C191.7 170.449 193.301 170.243 194.769 169.834C196.237 169.41 197.502 168.79 198.563 167.976C199.624 167.177 200.451 166.199 201.042 165.042C201.65 163.869 201.952 162.533 201.949 161.033C201.946 159.298 201.545 157.768 200.746 156.441C199.947 155.114 198.874 153.952 197.529 152.954C196.637 152.347 195.66 151.809 194.596 151.342C193.533 150.876 192.415 150.479 191.243 150.153C190.148 149.858 189.163 149.539 188.288 149.197C187.428 148.855 186.693 148.473 186.083 148.053C185.473 147.648 185.003 147.187 184.674 146.672C184.361 146.157 184.203 145.579 184.202 144.939C184.201 144.329 184.317 143.767 184.551 143.251C184.8 142.719 185.158 142.257 185.626 141.866C186.094 141.49 186.664 141.2 187.336 140.996C188.023 140.776 188.804 140.665 189.679 140.664C190.632 140.662 191.46 140.793 192.164 141.058C192.883 141.306 193.485 141.657 193.971 142.109C194.44 142.577 194.793 143.131 195.028 143.771C195.279 144.412 195.421 145.114 195.454 145.88L201.876 145.869C201.873 144.337 201.574 142.932 200.978 141.651C200.382 140.371 199.552 139.263 198.487 138.328C197.423 137.408 196.149 136.691 194.663 136.178C193.194 135.665 191.568 135.41 189.787 135.413C188.068 135.416 186.475 135.646 185.007 136.101C183.539 136.542 182.267 137.177 181.19 138.007C180.113 138.837 179.271 139.838 178.664 141.011C178.057 142.184 177.754 143.489 177.757 144.927C177.759 146.177 177.988 147.333 178.443 148.394C178.913 149.456 179.602 150.423 180.51 151.297C181.418 152.17 182.583 152.973 184.007 153.705C185.445 154.437 187.111 155.059 189.002 155.571C190.221 155.897 191.238 156.255 192.051 156.644C192.88 157.017 193.552 157.43 194.069 157.882C194.569 158.35 194.922 158.85 195.126 159.381C195.346 159.911 195.456 160.482 195.457 161.091ZM231.61 141.176L231.6 135.808L204.085 135.857L204.094 141.224L214.477 141.206L214.527 169.964L221.137 169.952L221.086 141.194L231.61 141.176ZM246.966 157.156L253.41 169.895L260.465 169.883L260.464 169.578L253.104 155.505C254.04 155.082 254.883 154.58 255.632 154.001C256.397 153.421 257.052 152.74 257.597 151.958C258.127 151.192 258.532 150.324 258.812 149.354C259.107 148.369 259.253 147.268 259.251 146.049C259.248 144.361 258.949 142.878 258.353 141.597C257.772 140.317 256.942 139.248 255.863 138.391C254.767 137.533 253.454 136.887 251.922 136.452C250.39 136.002 248.678 135.778 246.788 135.782L235.35 135.802L235.41 169.927L241.996 169.915L241.974 157.165L246.966 157.156ZM241.964 151.822L241.946 141.134L246.797 141.126C247.703 141.124 248.508 141.232 249.212 141.449C249.915 141.667 250.51 141.978 250.995 142.384C251.542 142.836 251.95 143.413 252.216 144.116C252.499 144.803 252.641 145.6 252.642 146.506C252.644 147.256 252.536 147.936 252.318 148.545C252.116 149.155 251.812 149.679 251.407 150.117C250.923 150.665 250.291 151.088 249.51 151.386C248.745 151.669 247.855 151.811 246.839 151.813L241.964 151.822ZM281.007 162.722L283.012 169.843L289.949 169.831L278.92 135.725L272.944 135.736L261.824 169.88L268.762 169.868L270.765 162.74L281.007 162.722ZM272.372 157.135L275.936 144.566L279.45 157.123L272.372 157.135ZM300.052 157.297L305.138 157.288C306.997 157.285 308.677 157.017 310.176 156.483C311.675 155.949 312.955 155.204 314.016 154.249C315.061 153.31 315.864 152.191 316.424 150.894C317 149.596 317.286 148.181 317.283 146.65C317.281 145.009 316.989 143.518 316.408 142.175C315.844 140.832 315.037 139.677 313.988 138.71C312.924 137.759 311.642 137.019 310.141 136.491C308.64 135.946 306.959 135.676 305.1 135.679L293.428 135.7L293.488 169.825L300.074 169.813L300.052 157.297ZM300.043 151.954L300.024 141.032L305.109 141.023C306.047 141.021 306.86 141.168 307.548 141.464C308.236 141.76 308.815 142.165 309.284 142.68C309.738 143.194 310.075 143.795 310.295 144.482C310.531 145.17 310.649 145.912 310.651 146.708C310.652 147.396 310.536 148.06 310.303 148.701C310.085 149.327 309.75 149.882 309.298 150.367C308.83 150.852 308.252 151.236 307.565 151.519C306.878 151.801 306.066 151.943 305.129 151.945L300.043 151.954ZM323.288 135.647L323.297 140.967L329.789 140.956L329.83 164.464L323.338 164.475L323.348 169.772L343.082 169.737L343.073 164.44L336.416 164.452L336.375 140.944L343.031 140.933L343.022 135.612L323.288 135.647ZM115.057 222.451L108.471 222.463C108.411 223.494 108.24 224.377 107.96 225.112C107.68 225.847 107.299 226.449 106.815 226.919C106.332 227.388 105.746 227.733 105.059 227.953C104.372 228.173 103.599 228.284 102.739 228.285C102.099 228.287 101.513 228.217 100.981 228.078C100.465 227.922 99.9961 227.689 99.5737 227.377C99.1825 227.096 98.8304 226.745 98.5171 226.324C98.2195 225.903 97.9608 225.419 97.7411 224.872C97.4272 224.076 97.1912 223.147 97.0331 222.085C96.8906 221.007 96.8181 219.788 96.8157 218.429L96.8076 213.788C96.8058 212.788 96.851 211.858 96.9433 210.999C97.0355 210.124 97.1825 209.326 97.3844 208.607C97.6484 207.685 97.9985 206.88 98.4348 206.191C98.8867 205.488 99.4326 204.947 100.073 204.571C100.447 204.352 100.853 204.187 101.29 204.077C101.743 203.967 102.228 203.911 102.743 203.91C103.712 203.909 104.54 204.04 105.228 204.304C105.932 204.553 106.519 204.927 106.988 205.426C107.442 205.941 107.787 206.581 108.023 207.346C108.274 208.112 108.432 209.002 108.496 210.017L115.059 210.006C114.899 208.225 114.522 206.624 113.925 205.203C113.329 203.782 112.514 202.581 111.481 201.598C110.448 200.616 109.197 199.86 107.727 199.331C106.273 198.803 104.609 198.54 102.734 198.543C101.468 198.545 100.281 198.712 99.1722 199.042C98.079 199.356 97.072 199.811 96.1512 200.406C95.1212 201.111 94.2008 201.972 93.3901 202.989C92.5794 204.006 91.9252 205.164 91.4275 206.462C90.9918 207.525 90.6657 208.682 90.4492 209.932C90.2326 211.167 90.1255 212.472 90.128 213.847L90.136 218.44C90.1386 219.909 90.2583 221.3 90.4949 222.612C90.7473 223.924 91.1009 225.126 91.556 226.219C92.0267 227.312 92.5987 228.311 93.2722 229.216C93.9613 230.121 94.7439 230.893 95.62 231.532C96.5744 232.218 97.6456 232.748 98.8338 233.12C100.038 233.478 101.343 233.655 102.749 233.653C104.53 233.649 106.155 233.389 107.622 232.871C109.09 232.337 110.355 231.585 111.415 230.614C112.476 229.643 113.318 228.47 113.94 227.094C114.579 225.718 114.951 224.17 115.057 222.451ZM128.235 198.991L120.055 199.005L120.115 233.13L126.162 233.119L126.144 223.018L125.836 207.69L129.869 221.863L133.126 221.857L137.577 207.037L137.324 222.998L137.342 233.1L143.388 233.089L143.328 198.964L135.149 198.978L131.492 211.805L128.235 198.991ZM166.74 224.142C166.741 224.751 166.617 225.314 166.368 225.83C166.119 226.33 165.76 226.76 165.292 227.121C164.824 227.481 164.246 227.763 163.559 227.967C162.888 228.172 162.114 228.275 161.239 228.276C160.255 228.278 159.349 228.17 158.52 227.953C157.707 227.736 157.011 227.393 156.432 226.925C155.838 226.458 155.376 225.857 155.046 225.123C154.717 224.389 154.536 223.507 154.503 222.476L148.034 222.487C148.037 224.253 148.376 225.791 149.05 227.102C149.74 228.414 150.671 229.553 151.845 230.519C153.081 231.502 154.528 232.249 156.185 232.762C157.858 233.259 159.545 233.506 161.249 233.503C162.983 233.5 164.584 233.294 166.052 232.885C167.52 232.46 168.785 231.841 169.846 231.027C170.907 230.228 171.733 229.25 172.325 228.093C172.932 226.92 173.235 225.583 173.232 224.083C173.229 222.349 172.828 220.818 172.029 219.492C171.229 218.165 170.157 217.003 168.812 216.005C167.92 215.397 166.942 214.86 165.879 214.393C164.816 213.926 163.698 213.53 162.525 213.204C161.431 212.909 160.446 212.59 159.571 212.248C158.711 211.906 157.976 211.524 157.365 211.103C156.755 210.698 156.286 210.238 155.957 209.723C155.643 209.208 155.486 208.63 155.485 207.989C155.484 207.38 155.6 206.817 155.834 206.301C156.083 205.77 156.441 205.308 156.909 204.917C157.377 204.541 157.947 204.251 158.619 204.046C159.306 203.826 160.087 203.716 160.962 203.714C161.915 203.713 162.743 203.844 163.447 204.108C164.166 204.357 164.768 204.707 165.253 205.16C165.723 205.628 166.076 206.182 166.311 206.822C166.562 207.462 166.704 208.165 166.737 208.931L173.158 208.919C173.156 207.388 172.856 205.982 172.26 204.702C171.664 203.422 170.834 202.314 169.77 201.378C168.706 200.458 167.431 199.742 165.946 199.229C164.476 198.716 162.851 198.461 161.07 198.464C159.351 198.467 157.758 198.696 156.29 199.152C154.822 199.592 153.549 200.227 152.473 201.057C151.396 201.887 150.554 202.889 149.947 204.062C149.339 205.235 149.037 206.54 149.04 207.977C149.042 209.227 149.27 210.383 149.725 211.445C150.196 212.507 150.885 213.474 151.793 214.348C152.701 215.221 153.866 216.024 155.289 216.755C156.728 217.487 158.393 218.109 160.285 218.622C161.504 218.948 162.52 219.305 163.334 219.694C164.162 220.068 164.835 220.481 165.351 220.933C165.852 221.401 166.205 221.9 166.409 222.431C166.628 222.962 166.739 223.532 166.74 224.142ZM230.37 222.248L223.784 222.26C223.723 223.291 223.553 224.174 223.273 224.909C222.993 225.644 222.611 226.246 222.127 226.716C221.644 227.186 221.058 227.53 220.371 227.75C219.684 227.97 218.911 228.081 218.052 228.082C217.411 228.084 216.825 228.014 216.293 227.875C215.778 227.719 215.308 227.486 214.886 227.174C214.495 226.893 214.143 226.542 213.829 226.121C213.532 225.7 213.273 225.216 213.053 224.669C212.74 223.873 212.504 222.944 212.345 221.882C212.203 220.804 212.13 219.585 212.128 218.226L212.12 213.585C212.118 212.585 212.163 211.655 212.256 210.796C212.348 209.921 212.495 209.123 212.697 208.404C212.961 207.482 213.311 206.677 213.747 205.988C214.199 205.285 214.745 204.745 215.385 204.368C215.76 204.149 216.165 203.984 216.603 203.874C217.056 203.764 217.54 203.708 218.056 203.707C219.024 203.706 219.853 203.837 220.541 204.102C221.244 204.35 221.831 204.724 222.3 205.223C222.755 205.738 223.099 206.378 223.335 207.143C223.586 207.909 223.744 208.799 223.809 209.815L230.371 209.803C230.212 208.022 229.834 206.421 229.238 205C228.641 203.579 227.827 202.378 226.794 201.395C225.761 200.413 224.509 199.657 223.04 199.128C221.586 198.6 219.921 198.337 218.046 198.34C216.781 198.342 215.593 198.509 214.485 198.839C213.391 199.153 212.384 199.608 211.464 200.203C210.433 200.908 209.513 201.769 208.702 202.786C207.892 203.803 207.237 204.961 206.74 206.259C206.304 207.322 205.978 208.479 205.762 209.729C205.545 210.964 205.438 212.269 205.44 213.644L205.448 218.237C205.451 219.706 205.571 221.097 205.807 222.409C206.06 223.721 206.413 224.923 206.868 226.016C207.339 227.109 207.911 228.108 208.585 229.013C209.274 229.918 210.056 230.69 210.932 231.329C211.887 232.015 212.958 232.545 214.146 232.917C215.35 233.275 216.655 233.452 218.061 233.45C219.842 233.447 221.467 233.186 222.935 232.668C224.403 232.134 225.667 231.382 226.728 230.411C227.788 229.44 228.63 228.267 229.253 226.891C229.891 225.515 230.263 223.967 230.37 222.248ZM259.308 218.33L259.299 213.361C259.297 211.815 259.145 210.354 258.846 208.979C258.563 207.605 258.146 206.34 257.597 205.185C257.096 204.17 256.492 203.241 255.788 202.399C255.099 201.556 254.293 200.839 253.37 200.247C252.447 199.623 251.407 199.149 250.25 198.823C249.109 198.481 247.882 198.311 246.57 198.313C245.273 198.316 244.07 198.482 242.961 198.812C241.852 199.142 240.853 199.613 239.964 200.224C239.058 200.85 238.255 201.602 237.553 202.478C236.868 203.354 236.283 204.332 235.801 205.411C235.303 206.552 234.922 207.795 234.659 209.139C234.411 210.483 234.289 211.905 234.291 213.405L234.3 218.374C234.303 219.78 234.414 221.116 234.635 222.381C234.872 223.647 235.21 224.818 235.649 225.895C236.136 227.066 236.739 228.12 237.46 229.056C238.18 229.977 238.994 230.764 239.901 231.419C240.824 232.042 241.849 232.525 242.974 232.867C244.1 233.209 245.327 233.378 246.655 233.376C247.905 233.374 249.069 233.215 250.146 232.901C251.239 232.602 252.239 232.179 253.144 231.63C254.143 231.003 255.032 230.221 255.812 229.282C256.591 228.343 257.246 227.31 257.775 226.184C258.273 225.059 258.654 223.839 258.917 222.526C259.18 221.198 259.311 219.799 259.308 218.33ZM252.619 213.326L252.628 218.342C252.63 219.186 252.584 219.998 252.492 220.78C252.415 221.561 252.291 222.28 252.121 222.937C251.903 223.781 251.608 224.539 251.234 225.212C250.876 225.868 250.432 226.416 249.901 226.855C249.48 227.215 248.996 227.489 248.449 227.677C247.903 227.866 247.301 227.961 246.645 227.962C245.958 227.963 245.34 227.863 244.793 227.66C244.262 227.458 243.784 227.17 243.362 226.796C242.908 226.375 242.509 225.828 242.164 225.157C241.834 224.47 241.583 223.713 241.41 222.885C241.252 222.229 241.142 221.518 241.078 220.753C241.014 219.987 240.981 219.191 240.98 218.362L240.971 213.347C240.97 212.472 240.999 211.636 241.06 210.839C241.137 210.042 241.253 209.307 241.408 208.635C241.61 207.76 241.89 206.994 242.248 206.337C242.622 205.68 243.074 205.132 243.604 204.694C243.994 204.396 244.431 204.169 244.916 204.012C245.415 203.855 245.97 203.775 246.579 203.774C247.22 203.773 247.798 203.858 248.314 204.029C248.846 204.2 249.323 204.441 249.745 204.753C250.277 205.174 250.739 205.72 251.131 206.391C251.522 207.047 251.836 207.796 252.072 208.64C252.261 209.311 252.395 210.045 252.474 210.842C252.57 211.623 252.618 212.451 252.619 213.326ZM287.023 198.711L280.484 198.723L280.501 221.34C280.487 222.449 280.372 223.426 280.154 224.27C279.937 225.114 279.61 225.818 279.174 226.381C278.768 226.929 278.254 227.344 277.629 227.626C277.02 227.893 276.317 228.027 275.52 228.028C274.786 228.029 274.137 227.906 273.574 227.657C273.011 227.392 272.534 227.002 272.143 226.487C271.72 225.926 271.398 225.215 271.178 224.356C270.973 223.497 270.862 222.497 270.845 221.357L270.781 198.74L264.195 198.751L264.212 221.368C264.215 223.275 264.484 224.977 265.018 226.476C265.567 227.96 266.335 229.208 267.321 230.222C268.307 231.236 269.488 232.008 270.864 232.536C272.256 233.065 273.811 233.328 275.53 233.325C277.358 233.322 278.982 233.053 280.403 232.52C281.84 231.986 283.057 231.202 284.055 230.169C285.038 229.152 285.786 227.901 286.299 226.415C286.827 224.93 287.09 223.234 287.087 221.328L287.023 198.711ZM304.733 220.055L311.177 232.794L318.232 232.781L318.231 232.476L310.871 218.403C311.807 217.98 312.65 217.478 313.399 216.899C314.164 216.32 314.819 215.639 315.364 214.856C315.894 214.09 316.299 213.222 316.579 212.253C316.874 211.268 317.02 210.166 317.018 208.947C317.015 207.26 316.716 205.776 316.12 204.496C315.539 203.216 314.709 202.147 313.63 201.289C312.534 200.432 311.221 199.786 309.689 199.351C308.157 198.9 306.445 198.677 304.555 198.68L293.117 198.7L293.177 232.825L299.763 232.814L299.741 220.064L304.733 220.055ZM299.731 214.72L299.713 204.032L304.564 204.024C305.47 204.022 306.275 204.13 306.979 204.348C307.682 204.565 308.277 204.877 308.762 205.282C309.309 205.734 309.717 206.312 309.983 207.014C310.266 207.701 310.408 208.498 310.41 209.404C310.411 210.154 310.303 210.834 310.085 211.444C309.883 212.054 309.579 212.578 309.174 213.016C308.69 213.564 308.058 213.987 307.277 214.285C306.512 214.567 305.622 214.71 304.606 214.711L299.731 214.72ZM339.708 223.837C339.709 224.446 339.585 225.009 339.336 225.525C339.087 226.026 338.729 226.456 338.261 226.816C337.792 227.176 337.215 227.459 336.528 227.663C335.856 227.867 335.083 227.97 334.208 227.972C333.223 227.974 332.317 227.866 331.489 227.648C330.676 227.431 329.98 227.089 329.401 226.621C328.806 226.153 328.344 225.552 328.015 224.819C327.685 224.085 327.504 223.202 327.471 222.171L321.002 222.183C321.005 223.948 321.344 225.487 322.018 226.798C322.708 228.109 323.64 229.248 324.813 230.215C326.049 231.197 327.496 231.945 329.153 232.457C330.826 232.954 332.514 233.201 334.217 233.198C335.951 233.195 337.553 232.989 339.021 232.581C340.489 232.156 341.753 231.537 342.814 230.722C343.875 229.924 344.702 228.946 345.294 227.788C345.901 226.615 346.203 225.279 346.201 223.779C346.197 222.044 345.796 220.514 344.997 219.187C344.198 217.86 343.126 216.698 341.78 215.701C340.888 215.093 339.911 214.555 338.848 214.089C337.784 213.622 336.666 213.225 335.494 212.899C334.4 212.604 333.415 212.286 332.539 211.943C331.679 211.601 330.944 211.22 330.334 210.799C329.724 210.394 329.254 209.934 328.925 209.419C328.612 208.903 328.455 208.326 328.453 207.685C328.452 207.076 328.569 206.513 328.802 205.997C329.051 205.465 329.41 205.004 329.878 204.612C330.346 204.236 330.916 203.946 331.587 203.742C332.274 203.522 333.055 203.411 333.93 203.41C334.883 203.408 335.712 203.539 336.415 203.804C337.135 204.053 337.737 204.403 338.222 204.855C338.691 205.323 339.044 205.877 339.279 206.518C339.531 207.158 339.672 207.861 339.705 208.626L346.127 208.615C346.124 207.084 345.825 205.678 345.229 204.398C344.633 203.117 343.803 202.01 342.739 201.074C341.675 200.154 340.4 199.437 338.915 198.924C337.445 198.411 335.819 198.156 334.038 198.16C332.319 198.163 330.726 198.392 329.258 198.848C327.79 199.288 326.518 199.923 325.441 200.753C324.365 201.583 323.523 202.584 322.915 203.757C322.308 204.93 322.006 206.235 322.008 207.673C322.01 208.923 322.239 210.079 322.694 211.14C323.164 212.202 323.854 213.17 324.761 214.043C325.669 214.916 326.835 215.719 328.258 216.451C329.697 217.183 331.362 217.805 333.253 218.317C334.473 218.643 335.489 219.001 336.302 219.39C337.131 219.764 337.804 220.176 338.32 220.629C338.821 221.096 339.173 221.596 339.377 222.127C339.597 222.658 339.707 223.228 339.708 223.837ZM371.807 217.734L371.798 212.531L357.782 212.555L357.767 203.954L374.08 203.925L374.07 198.558L351.148 198.598L351.208 232.723L374.201 232.683L374.191 227.362L357.808 227.391L357.791 217.758L371.807 217.734Z" fill="#2F2E8B"/>
</svg>
